<svg width="254" height="28" viewBox="0 0 254 28" fill="none" xmlns="http://www.w3.org/2000/svg">
<path d="M70.4062 17.5352C70.4062 17.2305 70.3594 16.957 70.2656 16.7148C70.1797 16.4648 70.0156 16.2383 69.7734 16.0352C69.5312 15.8242 69.1914 15.6172 68.7539 15.4141C68.3164 15.2109 67.75 15 67.0547 14.7812C66.2812 14.5312 65.5469 14.25 64.8516 13.9375C64.1641 13.625 63.5547 13.2617 63.0234 12.8477C62.5 12.4258 62.0859 11.9375 61.7812 11.3828C61.4844 10.8281 61.3359 10.1836 61.3359 9.44922C61.3359 8.73828 61.4922 8.09375 61.8047 7.51562C62.1172 6.92969 62.5547 6.42969 63.1172 6.01562C63.6797 5.59375 64.3438 5.26953 65.1094 5.04297C65.8828 4.81641 66.7305 4.70312 67.6523 4.70312C68.9102 4.70312 70.0078 4.92969 70.9453 5.38281C71.8828 5.83594 72.6094 6.45703 73.125 7.24609C73.6484 8.03516 73.9102 8.9375 73.9102 9.95312H70.418C70.418 9.45312 70.3125 9.01562 70.1016 8.64062C69.8984 8.25781 69.5859 7.95703 69.1641 7.73828C68.75 7.51953 68.2266 7.41016 67.5938 7.41016C66.9844 7.41016 66.4766 7.50391 66.0703 7.69141C65.6641 7.87109 65.3594 8.11719 65.1562 8.42969C64.9531 8.73438 64.8516 9.07812 64.8516 9.46094C64.8516 9.75 64.9219 10.0117 65.0625 10.2461C65.2109 10.4805 65.4297 10.6992 65.7188 10.9023C66.0078 11.1055 66.3633 11.2969 66.7852 11.4766C67.207 11.6562 67.6953 11.832 68.25 12.0039C69.1797 12.2852 69.9961 12.6016 70.6992 12.9531C71.4102 13.3047 72.0039 13.6992 72.4805 14.1367C72.957 14.5742 73.3164 15.0703 73.5586 15.625C73.8008 16.1797 73.9219 16.8086 73.9219 17.5117C73.9219 18.2539 73.7773 18.918 73.4883 19.5039C73.1992 20.0898 72.7812 20.5859 72.2344 20.9922C71.6875 21.3984 71.0352 21.707 70.2773 21.918C69.5195 22.1289 68.6719 22.2344 67.7344 22.2344C66.8906 22.2344 66.0586 22.125 65.2383 21.9062C64.418 21.6797 63.6719 21.3398 63 20.8867C62.3359 20.4336 61.8047 19.8555 61.4062 19.1523C61.0078 18.4492 60.8086 17.6172 60.8086 16.6562H64.3359C64.3359 17.1875 64.418 17.6367 64.582 18.0039C64.7461 18.3711 64.9766 18.668 65.2734 18.8945C65.5781 19.1211 65.9375 19.2852 66.3516 19.3867C66.7734 19.4883 67.2344 19.5391 67.7344 19.5391C68.3438 19.5391 68.8438 19.4531 69.2344 19.2812C69.6328 19.1094 69.9258 18.8711 70.1133 18.5664C70.3086 18.2617 70.4062 17.918 70.4062 17.5352ZM83.1375 22.2344C82.1531 22.2344 81.2703 22.0781 80.4891 21.7656C79.7078 21.4453 79.0437 21.0039 78.4969 20.4414C77.9578 19.8789 77.5437 19.2266 77.2547 18.4844C76.9656 17.7344 76.8211 16.9375 76.8211 16.0938V15.625C76.8211 14.6641 76.9578 13.7852 77.2312 12.9883C77.5047 12.1914 77.8953 11.5 78.4031 10.9141C78.9187 10.3281 79.5437 9.87891 80.2781 9.56641C81.0125 9.24609 81.8406 9.08594 82.7625 9.08594C83.6609 9.08594 84.4578 9.23438 85.1531 9.53125C85.8484 9.82812 86.4305 10.25 86.8992 10.7969C87.3758 11.3438 87.7352 12 87.9773 12.7656C88.2195 13.5234 88.3406 14.3672 88.3406 15.2969V16.7031H78.2625V14.4531H85.0242V14.1953C85.0242 13.7266 84.9383 13.3086 84.7664 12.9414C84.6023 12.5664 84.3523 12.2695 84.0164 12.0508C83.6805 11.832 83.2508 11.7227 82.7273 11.7227C82.282 11.7227 81.8992 11.8203 81.5789 12.0156C81.2586 12.2109 80.9969 12.4844 80.7937 12.8359C80.5984 13.1875 80.45 13.6016 80.3484 14.0781C80.2547 14.5469 80.2078 15.0625 80.2078 15.625V16.0938C80.2078 16.6016 80.2781 17.0703 80.4187 17.5C80.5672 17.9297 80.7742 18.3008 81.0398 18.6133C81.3133 18.9258 81.6414 19.168 82.0242 19.3398C82.4148 19.5117 82.8562 19.5977 83.3484 19.5977C83.9578 19.5977 84.5242 19.4805 85.0477 19.2461C85.5789 19.0039 86.0359 18.6406 86.4187 18.1562L88.0594 19.9375C87.7937 20.3203 87.4305 20.6875 86.9695 21.0391C86.5164 21.3906 85.9695 21.6797 85.3289 21.9062C84.6883 22.125 83.9578 22.2344 83.1375 22.2344ZM80.7586 7.59766L83.0555 3.98828H86.7234L83.5008 7.59766H80.7586ZM91.4625 4H94.8375V19.0938L94.4977 22H91.4625V4ZM102.865 15.5312V15.7773C102.865 16.7227 102.763 17.5898 102.56 18.3789C102.365 19.168 102.06 19.8516 101.646 20.4297C101.232 21 100.716 21.4453 100.099 21.7656C99.4898 22.0781 98.7711 22.2344 97.943 22.2344C97.1695 22.2344 96.4977 22.0781 95.9273 21.7656C95.3648 21.4531 94.8922 21.0117 94.5094 20.4414C94.1266 19.8711 93.818 19.2031 93.5836 18.4375C93.3492 17.6719 93.1734 16.8359 93.0562 15.9297V15.3906C93.1734 14.4844 93.3492 13.6484 93.5836 12.8828C93.818 12.1172 94.1266 11.4492 94.5094 10.8789C94.8922 10.3086 95.3648 9.86719 95.9273 9.55469C96.4898 9.24219 97.1539 9.08594 97.9195 9.08594C98.7555 9.08594 99.482 9.24609 100.099 9.56641C100.724 9.87891 101.24 10.3242 101.646 10.9023C102.06 11.4727 102.365 12.1523 102.56 12.9414C102.763 13.7227 102.865 14.5859 102.865 15.5312ZM99.4898 15.7773V15.5312C99.4898 15.0156 99.4508 14.5312 99.3727 14.0781C99.3023 13.6172 99.1773 13.2148 98.9977 12.8711C98.818 12.5195 98.5719 12.2422 98.2594 12.0391C97.9547 11.8359 97.5602 11.7344 97.0758 11.7344C96.6148 11.7344 96.2242 11.8125 95.9039 11.9688C95.5836 12.125 95.318 12.3438 95.107 12.625C94.9039 12.9062 94.7516 13.2422 94.65 13.6328C94.5484 14.0156 94.4859 14.4375 94.4625 14.8984V16.4336C94.4859 17.0508 94.5875 17.5977 94.7672 18.0742C94.9547 18.543 95.2359 18.9141 95.6109 19.1875C95.9937 19.4531 96.4898 19.5859 97.0992 19.5859C97.5758 19.5859 97.9703 19.4922 98.2828 19.3047C98.5953 19.1172 98.8375 18.8516 99.0094 18.5078C99.1891 18.1641 99.3141 17.7617 99.3844 17.3008C99.4547 16.832 99.4898 16.3242 99.4898 15.7773ZM113.006 19.1406V13.4922C113.006 13.0859 112.94 12.7383 112.807 12.4492C112.674 12.1523 112.467 11.9219 112.186 11.7578C111.912 11.5938 111.557 11.5117 111.12 11.5117C110.745 11.5117 110.42 11.5781 110.147 11.7109C109.873 11.8359 109.662 12.0195 109.514 12.2617C109.366 12.4961 109.291 12.7734 109.291 13.0938H105.916C105.916 12.5547 106.041 12.043 106.291 11.5586C106.541 11.0742 106.905 10.6484 107.381 10.2812C107.858 9.90625 108.424 9.61328 109.08 9.40234C109.745 9.19141 110.487 9.08594 111.307 9.08594C112.291 9.08594 113.166 9.25 113.932 9.57812C114.698 9.90625 115.299 10.3984 115.737 11.0547C116.182 11.7109 116.405 12.5312 116.405 13.5156V18.9414C116.405 19.6367 116.448 20.207 116.534 20.6523C116.62 21.0898 116.745 21.4727 116.909 21.8008V22H113.498C113.334 21.6562 113.209 21.2266 113.123 20.7109C113.045 20.1875 113.006 19.6641 113.006 19.1406ZM113.452 14.2773L113.475 16.1875H111.588C111.143 16.1875 110.756 16.2383 110.428 16.3398C110.1 16.4414 109.83 16.5859 109.62 16.7734C109.409 16.9531 109.252 17.1641 109.151 17.4062C109.057 17.6484 109.01 17.9141 109.01 18.2031C109.01 18.4922 109.077 18.7539 109.209 18.9883C109.342 19.2148 109.534 19.3945 109.784 19.5273C110.034 19.6523 110.327 19.7148 110.662 19.7148C111.17 19.7148 111.612 19.6133 111.987 19.4102C112.362 19.207 112.651 18.957 112.854 18.6602C113.065 18.3633 113.174 18.082 113.182 17.8164L114.073 19.2461C113.948 19.5664 113.776 19.8984 113.557 20.2422C113.346 20.5859 113.077 20.9102 112.748 21.2148C112.42 21.5117 112.026 21.7578 111.565 21.9531C111.104 22.1406 110.557 22.2344 109.924 22.2344C109.12 22.2344 108.389 22.0742 107.733 21.7539C107.084 21.4258 106.569 20.9766 106.186 20.4062C105.811 19.8281 105.623 19.1719 105.623 18.4375C105.623 17.7734 105.748 17.1836 105.998 16.668C106.248 16.1523 106.616 15.7188 107.1 15.3672C107.592 15.0078 108.205 14.7383 108.94 14.5586C109.674 14.3711 110.526 14.2773 111.495 14.2773H113.452ZM127.062 18.4961C127.062 18.2539 126.991 18.0352 126.851 17.8398C126.71 17.6445 126.448 17.4648 126.066 17.3008C125.691 17.1289 125.148 16.9727 124.437 16.832C123.796 16.6914 123.198 16.5156 122.644 16.3047C122.097 16.0859 121.62 15.8242 121.214 15.5195C120.816 15.2148 120.503 14.8555 120.277 14.4414C120.05 14.0195 119.937 13.5391 119.937 13C119.937 12.4688 120.05 11.9688 120.277 11.5C120.511 11.0312 120.843 10.6172 121.273 10.2578C121.71 9.89062 122.241 9.60547 122.866 9.40234C123.499 9.19141 124.21 9.08594 124.999 9.08594C126.101 9.08594 127.046 9.26172 127.835 9.61328C128.632 9.96484 129.241 10.4492 129.663 11.0664C130.093 11.6758 130.308 12.3711 130.308 13.1523H126.933C126.933 12.8242 126.862 12.5312 126.722 12.2734C126.589 12.0078 126.378 11.8008 126.089 11.6523C125.808 11.4961 125.441 11.418 124.987 11.418C124.612 11.418 124.288 11.4844 124.015 11.6172C123.741 11.7422 123.53 11.9141 123.382 12.1328C123.241 12.3438 123.171 12.5781 123.171 12.8359C123.171 13.0312 123.21 13.207 123.288 13.3633C123.374 13.5117 123.511 13.6484 123.698 13.7734C123.886 13.8984 124.128 14.0156 124.425 14.125C124.73 14.2266 125.105 14.3203 125.55 14.4062C126.464 14.5938 127.28 14.8398 127.999 15.1445C128.718 15.4414 129.288 15.8477 129.71 16.3633C130.132 16.8711 130.343 17.5391 130.343 18.3672C130.343 18.9297 130.218 19.4453 129.968 19.9141C129.718 20.3828 129.359 20.793 128.89 21.1445C128.421 21.4883 127.859 21.7578 127.202 21.9531C126.554 22.1406 125.823 22.2344 125.011 22.2344C123.831 22.2344 122.831 22.0234 122.011 21.6016C121.198 21.1797 120.581 20.6445 120.159 19.9961C119.745 19.3398 119.538 18.668 119.538 17.9805H122.737C122.753 18.4414 122.87 18.8125 123.089 19.0938C123.316 19.375 123.601 19.5781 123.945 19.7031C124.296 19.8281 124.675 19.8906 125.081 19.8906C125.519 19.8906 125.882 19.832 126.171 19.7148C126.46 19.5898 126.679 19.4258 126.827 19.2227C126.984 19.0117 127.062 18.7695 127.062 18.4961ZM139.945 9.32031V11.7109H132.562V9.32031H139.945ZM134.391 6.19141H137.766V18.1797C137.766 18.5469 137.812 18.8281 137.906 19.0234C138.008 19.2188 138.156 19.3555 138.352 19.4336C138.547 19.5039 138.793 19.5391 139.09 19.5391C139.301 19.5391 139.488 19.5312 139.652 19.5156C139.824 19.4922 139.969 19.4688 140.086 19.4453L140.098 21.9297C139.809 22.0234 139.496 22.0977 139.16 22.1523C138.824 22.207 138.453 22.2344 138.047 22.2344C137.305 22.2344 136.656 22.1133 136.102 21.8711C135.555 21.6211 135.133 21.2227 134.836 20.6758C134.539 20.1289 134.391 19.4102 134.391 18.5195V6.19141ZM146.63 9.32031V22H143.243V9.32031H146.63ZM143.032 6.01562C143.032 5.52344 143.204 5.11719 143.548 4.79688C143.891 4.47656 144.352 4.31641 144.93 4.31641C145.501 4.31641 145.958 4.47656 146.302 4.79688C146.653 5.11719 146.829 5.52344 146.829 6.01562C146.829 6.50781 146.653 6.91406 146.302 7.23438C145.958 7.55469 145.501 7.71484 144.93 7.71484C144.352 7.71484 143.891 7.55469 143.548 7.23438C143.204 6.91406 143.032 6.50781 143.032 6.01562ZM156.455 22.2344C155.47 22.2344 154.588 22.0781 153.806 21.7656C153.025 21.4453 152.361 21.0039 151.814 20.4414C151.275 19.8789 150.861 19.2266 150.572 18.4844C150.283 17.7344 150.138 16.9375 150.138 16.0938V15.625C150.138 14.6641 150.275 13.7852 150.548 12.9883C150.822 12.1914 151.213 11.5 151.72 10.9141C152.236 10.3281 152.861 9.87891 153.595 9.56641C154.33 9.24609 155.158 9.08594 156.08 9.08594C156.978 9.08594 157.775 9.23438 158.47 9.53125C159.166 9.82812 159.748 10.25 160.216 10.7969C160.693 11.3438 161.052 12 161.295 12.7656C161.537 13.5234 161.658 14.3672 161.658 15.2969V16.7031H151.58V14.4531H158.341V14.1953C158.341 13.7266 158.255 13.3086 158.084 12.9414C157.92 12.5664 157.67 12.2695 157.334 12.0508C156.998 11.832 156.568 11.7227 156.045 11.7227C155.599 11.7227 155.216 11.8203 154.896 12.0156C154.576 12.2109 154.314 12.4844 154.111 12.8359C153.916 13.1875 153.767 13.6016 153.666 14.0781C153.572 14.5469 153.525 15.0625 153.525 15.625V16.0938C153.525 16.6016 153.595 17.0703 153.736 17.5C153.884 17.9297 154.091 18.3008 154.357 18.6133C154.63 18.9258 154.959 19.168 155.341 19.3398C155.732 19.5117 156.173 19.5977 156.666 19.5977C157.275 19.5977 157.841 19.4805 158.365 19.2461C158.896 19.0039 159.353 18.6406 159.736 18.1562L161.377 19.9375C161.111 20.3203 160.748 20.6875 160.287 21.0391C159.834 21.3906 159.287 21.6797 158.646 21.9062C158.005 22.125 157.275 22.2344 156.455 22.2344ZM168.084 12.0273V22H164.709V9.32031H167.873L168.084 12.0273ZM167.592 15.2148H166.678C166.678 14.2773 166.799 13.4336 167.041 12.6836C167.284 11.9258 167.623 11.2812 168.061 10.75C168.498 10.2109 169.018 9.80078 169.62 9.51953C170.229 9.23047 170.909 9.08594 171.659 9.08594C172.252 9.08594 172.795 9.17188 173.287 9.34375C173.78 9.51562 174.202 9.78906 174.553 10.1641C174.912 10.5391 175.186 11.0352 175.373 11.6523C175.569 12.2695 175.666 13.0234 175.666 13.9141V22H172.268V13.9023C172.268 13.3398 172.19 12.9023 172.034 12.5898C171.877 12.2773 171.647 12.0586 171.342 11.9336C171.045 11.8008 170.678 11.7344 170.241 11.7344C169.787 11.7344 169.393 11.8242 169.057 12.0039C168.729 12.1836 168.455 12.4336 168.237 12.7539C168.026 13.0664 167.866 13.4336 167.756 13.8555C167.647 14.2773 167.592 14.7305 167.592 15.2148ZM192.059 22H188.344L188.367 19.2578H192.059C192.98 19.2578 193.758 19.0508 194.391 18.6367C195.023 18.2148 195.5 17.6016 195.82 16.7969C196.148 15.9922 196.312 15.0195 196.312 13.8789V13.0469C196.312 12.1719 196.219 11.4023 196.031 10.7383C195.852 10.0742 195.582 9.51562 195.223 9.0625C194.863 8.60938 194.422 8.26953 193.898 8.04297C193.375 7.80859 192.773 7.69141 192.094 7.69141H188.273V4.9375H192.094C193.234 4.9375 194.277 5.13281 195.223 5.52344C196.176 5.90625 197 6.45703 197.695 7.17578C198.391 7.89453 198.926 8.75391 199.301 9.75391C199.684 10.7461 199.875 11.8516 199.875 13.0703V13.8789C199.875 15.0898 199.684 16.1953 199.301 17.1953C198.926 18.1953 198.391 19.0547 197.695 19.7734C197.008 20.4844 196.184 21.0352 195.223 21.4258C194.27 21.8086 193.215 22 192.059 22ZM190.336 4.9375V22H186.82V4.9375H190.336ZM210.262 19.1406V13.4922C210.262 13.0859 210.196 12.7383 210.063 12.4492C209.93 12.1523 209.723 11.9219 209.442 11.7578C209.169 11.5938 208.813 11.5117 208.376 11.5117C208.001 11.5117 207.677 11.5781 207.403 11.7109C207.13 11.8359 206.919 12.0195 206.77 12.2617C206.622 12.4961 206.548 12.7734 206.548 13.0938H203.173C203.173 12.5547 203.298 12.043 203.548 11.5586C203.798 11.0742 204.161 10.6484 204.637 10.2812C205.114 9.90625 205.68 9.61328 206.337 9.40234C207.001 9.19141 207.743 9.08594 208.563 9.08594C209.548 9.08594 210.423 9.25 211.188 9.57812C211.954 9.90625 212.555 10.3984 212.993 11.0547C213.438 11.7109 213.661 12.5312 213.661 13.5156V18.9414C213.661 19.6367 213.704 20.207 213.79 20.6523C213.876 21.0898 214.001 21.4727 214.165 21.8008V22H210.755C210.591 21.6562 210.466 21.2266 210.38 20.7109C210.302 20.1875 210.262 19.6641 210.262 19.1406ZM210.708 14.2773L210.731 16.1875H208.845C208.399 16.1875 208.012 16.2383 207.684 16.3398C207.356 16.4414 207.087 16.5859 206.876 16.7734C206.665 16.9531 206.509 17.1641 206.407 17.4062C206.313 17.6484 206.266 17.9141 206.266 18.2031C206.266 18.4922 206.333 18.7539 206.466 18.9883C206.598 19.2148 206.79 19.3945 207.04 19.5273C207.29 19.6523 207.583 19.7148 207.919 19.7148C208.427 19.7148 208.868 19.6133 209.243 19.4102C209.618 19.207 209.907 18.957 210.11 18.6602C210.321 18.3633 210.43 18.082 210.438 17.8164L211.329 19.2461C211.204 19.5664 211.032 19.8984 210.813 20.2422C210.602 20.5859 210.333 20.9102 210.005 21.2148C209.677 21.5117 209.282 21.7578 208.821 21.9531C208.36 22.1406 207.813 22.2344 207.18 22.2344C206.376 22.2344 205.645 22.0742 204.989 21.7539C204.341 21.4258 203.825 20.9766 203.442 20.4062C203.067 19.8281 202.88 19.1719 202.88 18.4375C202.88 17.7734 203.005 17.1836 203.255 16.668C203.505 16.1523 203.872 15.7188 204.356 15.3672C204.848 15.0078 205.462 14.7383 206.196 14.5586C206.93 14.3711 207.782 14.2773 208.751 14.2773H210.708ZM220.837 12.0859V22H217.462V9.32031H220.638L220.837 12.0859ZM224.658 9.23828L224.599 12.3672C224.435 12.3438 224.236 12.3242 224.002 12.3086C223.775 12.2852 223.568 12.2734 223.38 12.2734C222.904 12.2734 222.49 12.3359 222.138 12.4609C221.795 12.5781 221.505 12.7539 221.271 12.9883C221.045 13.2227 220.873 13.5078 220.755 13.8438C220.646 14.1797 220.584 14.5625 220.568 14.9922L219.888 14.7812C219.888 13.9609 219.97 13.207 220.134 12.5195C220.298 11.8242 220.537 11.2188 220.849 10.7031C221.17 10.1875 221.56 9.78906 222.021 9.50781C222.482 9.22656 223.009 9.08594 223.603 9.08594C223.791 9.08594 223.982 9.10156 224.177 9.13281C224.373 9.15625 224.533 9.19141 224.658 9.23828ZM235.245 9.32031H238.303V21.5781C238.303 22.7344 238.045 23.7148 237.53 24.5195C237.022 25.332 236.311 25.9453 235.397 26.3594C234.483 26.7812 233.42 26.9922 232.209 26.9922C231.678 26.9922 231.116 26.9219 230.522 26.7812C229.936 26.6406 229.373 26.4219 228.834 26.125C228.303 25.8281 227.858 25.4531 227.498 25L228.987 23.0078C229.377 23.4609 229.83 23.8125 230.346 24.0625C230.862 24.3203 231.432 24.4492 232.057 24.4492C232.666 24.4492 233.182 24.3359 233.604 24.1094C234.026 23.8906 234.35 23.5664 234.577 23.1367C234.803 22.7148 234.916 22.2031 234.916 21.6016V12.25L235.245 9.32031ZM226.713 15.8125V15.5664C226.713 14.5977 226.83 13.7188 227.065 12.9297C227.307 12.1328 227.647 11.4492 228.084 10.8789C228.53 10.3086 229.069 9.86719 229.702 9.55469C230.334 9.24219 231.049 9.08594 231.846 9.08594C232.69 9.08594 233.397 9.24219 233.967 9.55469C234.538 9.86719 235.006 10.3125 235.373 10.8906C235.741 11.4609 236.026 12.1367 236.229 12.918C236.44 13.6914 236.604 14.5391 236.721 15.4609V16C236.604 16.8828 236.428 17.7031 236.194 18.4609C235.959 19.2188 235.651 19.8828 235.268 20.4531C234.885 21.0156 234.409 21.4531 233.838 21.7656C233.276 22.0781 232.604 22.2344 231.823 22.2344C231.041 22.2344 230.334 22.0742 229.702 21.7539C229.077 21.4336 228.541 20.9844 228.096 20.4062C227.651 19.8281 227.307 19.1484 227.065 18.3672C226.83 17.5859 226.713 16.7344 226.713 15.8125ZM230.088 15.5664V15.8125C230.088 16.3359 230.139 16.8242 230.241 17.2773C230.342 17.7305 230.498 18.1328 230.709 18.4844C230.928 18.8281 231.198 19.0977 231.518 19.293C231.846 19.4805 232.233 19.5742 232.678 19.5742C233.295 19.5742 233.799 19.4453 234.19 19.1875C234.58 18.9219 234.873 18.5586 235.069 18.0977C235.264 17.6367 235.377 17.1055 235.409 16.5039V14.9688C235.393 14.4766 235.327 14.0352 235.209 13.6445C235.092 13.2461 234.928 12.9062 234.717 12.625C234.506 12.3438 234.233 12.125 233.897 11.9688C233.561 11.8125 233.163 11.7344 232.702 11.7344C232.256 11.7344 231.87 11.8359 231.541 12.0391C231.221 12.2344 230.952 12.5039 230.733 12.8477C230.522 13.1914 230.362 13.5977 230.252 14.0664C230.143 14.5273 230.088 15.0273 230.088 15.5664ZM247.964 22.2344C246.98 22.2344 246.097 22.0781 245.316 21.7656C244.534 21.4453 243.87 21.0039 243.323 20.4414C242.784 19.8789 242.37 19.2266 242.081 18.4844C241.792 17.7344 241.648 16.9375 241.648 16.0938V15.625C241.648 14.6641 241.784 13.7852 242.058 12.9883C242.331 12.1914 242.722 11.5 243.23 10.9141C243.745 10.3281 244.37 9.87891 245.105 9.56641C245.839 9.24609 246.667 9.08594 247.589 9.08594C248.488 9.08594 249.284 9.23438 249.98 9.53125C250.675 9.82812 251.257 10.25 251.726 10.7969C252.202 11.3438 252.562 12 252.804 12.7656C253.046 13.5234 253.167 14.3672 253.167 15.2969V16.7031H243.089V14.4531H249.851V14.1953C249.851 13.7266 249.765 13.3086 249.593 12.9414C249.429 12.5664 249.179 12.2695 248.843 12.0508C248.507 11.832 248.077 11.7227 247.554 11.7227C247.109 11.7227 246.726 11.8203 246.405 12.0156C246.085 12.2109 245.823 12.4844 245.62 12.8359C245.425 13.1875 245.277 13.6016 245.175 14.0781C245.081 14.5469 245.034 15.0625 245.034 15.625V16.0938C245.034 16.6016 245.105 17.0703 245.245 17.5C245.394 17.9297 245.601 18.3008 245.866 18.6133C246.14 18.9258 246.468 19.168 246.851 19.3398C247.241 19.5117 247.683 19.5977 248.175 19.5977C248.784 19.5977 249.351 19.4805 249.874 19.2461C250.405 19.0039 250.863 18.6406 251.245 18.1562L252.886 19.9375C252.62 20.3203 252.257 20.6875 251.796 21.0391C251.343 21.3906 250.796 21.6797 250.155 21.9062C249.515 22.125 248.784 22.2344 247.964 22.2344Z" fill="black"/>
<rect width="7.62877" height="31.2617" rx="3.81438" transform="matrix(0.704577 -0.709627 0.704577 0.709627 12.4224 5.81586)" fill="black"/>
<path d="M2.68753 10.5363C1.20325 9.0414 1.20325 6.61766 2.68753 5.12274C4.17181 3.62782 6.5783 3.62782 8.06258 5.12274L22.3249 19.4872C23.8092 20.9822 23.8092 23.4059 22.3249 24.9008C20.8406 26.3957 18.4341 26.3957 16.9498 24.9008L2.68753 10.5363Z" fill="black"/>
<path d="M28.8791 3.87286C29.2409 3.09144 30.166 2.75473 30.9455 3.12078C31.7249 3.48684 32.0635 4.41706 31.7017 5.19848L23.0605 23.8623C22.6987 24.6438 21.7736 24.9805 20.9941 24.6144C20.2147 24.2484 19.8761 23.3182 20.2379 22.5367L28.8791 3.87286Z" fill="black"/>
<path d="M29.6743 8.12308C28.1895 6.62767 28.1895 4.2031 29.6743 2.70769C31.159 1.21227 33.5663 1.21227 35.0511 2.70769L49.3116 17.0704C50.7964 18.5658 50.7964 20.9904 49.3116 22.4858C47.8268 23.9812 45.4184 23.9801 43.9337 22.4847C38.9784 17.4938 35.3175 13.8067 30.5001 8.95482C30.2286 8.68142 29.9535 8.40432 29.6743 8.12308Z" fill="black"/>
</svg>
